<mxfile host="app.diagrams.net" modified="2023-05-05T05:22:38.627Z" agent="Mozilla/5.0 (Windows NT 10.0; Win64; x64) AppleWebKit/537.36 (KHTML, like Gecko) Chrome/112.0.0.0 Safari/537.36" etag="-qq6ROTFyyqH7K20sM0y" version="21.2.9" type="github">
  <diagram id="C5RBs43oDa-KdzZeNtuy" name="Page-1">
    <mxGraphModel dx="1050" dy="577" grid="1" gridSize="10" guides="1" tooltips="1" connect="1" arrows="1" fold="1" page="1" pageScale="1" pageWidth="827" pageHeight="1169" math="0" shadow="0">
      <root>
        <mxCell id="WIyWlLk6GJQsqaUBKTNV-0" />
        <mxCell id="WIyWlLk6GJQsqaUBKTNV-1" parent="WIyWlLk6GJQsqaUBKTNV-0" />
        <mxCell id="g9mh1SVgbQJ4VpyZCTlu-30" value="plcri_2017_2018" style="rounded=1;whiteSpace=wrap;html=1;fontSize=12;glass=0;strokeWidth=1;shadow=0;flipV=0;flipH=0;direction=east;" vertex="1" parent="WIyWlLk6GJQsqaUBKTNV-1">
          <mxGeometry x="90" y="480" width="120" height="40" as="geometry" />
        </mxCell>
        <mxCell id="g9mh1SVgbQJ4VpyZCTlu-31" value="school" style="ellipse;whiteSpace=wrap;html=1;flipV=0;flipH=0;direction=east;" vertex="1" parent="WIyWlLk6GJQsqaUBKTNV-1">
          <mxGeometry x="50" y="585" width="80" height="30" as="geometry" />
        </mxCell>
        <mxCell id="g9mh1SVgbQJ4VpyZCTlu-32" value="pid" style="ellipse;whiteSpace=wrap;html=1;flipV=0;flipH=0;direction=east;" vertex="1" parent="WIyWlLk6GJQsqaUBKTNV-1">
          <mxGeometry x="20" y="545" width="80" height="30" as="geometry" />
        </mxCell>
        <mxCell id="g9mh1SVgbQJ4VpyZCTlu-34" value="" style="endArrow=none;html=1;rounded=0;exitX=1;exitY=0;exitDx=0;exitDy=0;entryX=0.25;entryY=1;entryDx=0;entryDy=0;" edge="1" source="g9mh1SVgbQJ4VpyZCTlu-32" target="g9mh1SVgbQJ4VpyZCTlu-30" parent="WIyWlLk6GJQsqaUBKTNV-1">
          <mxGeometry width="50" height="50" relative="1" as="geometry">
            <mxPoint x="160" y="405" as="sourcePoint" />
            <mxPoint x="110" y="515" as="targetPoint" />
          </mxGeometry>
        </mxCell>
        <mxCell id="g9mh1SVgbQJ4VpyZCTlu-35" value="" style="endArrow=none;html=1;rounded=0;entryX=0.417;entryY=1.02;entryDx=0;entryDy=0;entryPerimeter=0;" edge="1" source="g9mh1SVgbQJ4VpyZCTlu-31" target="g9mh1SVgbQJ4VpyZCTlu-30" parent="WIyWlLk6GJQsqaUBKTNV-1">
          <mxGeometry width="50" height="50" relative="1" as="geometry">
            <mxPoint x="17.057002699199074" y="607.3478636006969" as="sourcePoint" />
            <mxPoint x="47.057002699199074" y="547.3478636006969" as="targetPoint" />
          </mxGeometry>
        </mxCell>
        <mxCell id="WIyWlLk6GJQsqaUBKTNV-3" value="&lt;h2 style=&quot;font-size: 23px;&quot;&gt;&lt;span style=&quot;font-weight: normal;&quot;&gt;Admin&lt;/span&gt;&lt;/h2&gt;" style="rounded=1;whiteSpace=wrap;html=1;fontSize=12;glass=0;strokeWidth=1;shadow=0;" parent="WIyWlLk6GJQsqaUBKTNV-1" vertex="1">
          <mxGeometry x="335" y="90" width="200" height="50" as="geometry" />
        </mxCell>
        <mxCell id="WIyWlLk6GJQsqaUBKTNV-6" value="ADD" style="rhombus;whiteSpace=wrap;html=1;shadow=0;fontFamily=Helvetica;fontSize=12;align=center;strokeWidth=1;spacing=6;spacingTop=-4;" parent="WIyWlLk6GJQsqaUBKTNV-1" vertex="1">
          <mxGeometry x="385" y="250" width="100" height="80" as="geometry" />
        </mxCell>
        <mxCell id="WIyWlLk6GJQsqaUBKTNV-7" value="plcri" style="rounded=1;whiteSpace=wrap;html=1;fontSize=12;glass=0;strokeWidth=1;shadow=0;" parent="WIyWlLk6GJQsqaUBKTNV-1" vertex="1">
          <mxGeometry x="130" y="355" width="120" height="40" as="geometry" />
        </mxCell>
        <mxCell id="g9mh1SVgbQJ4VpyZCTlu-2" value="" style="endArrow=none;html=1;rounded=0;entryX=0.5;entryY=1;entryDx=0;entryDy=0;exitX=1;exitY=0.5;exitDx=0;exitDy=0;" edge="1" parent="WIyWlLk6GJQsqaUBKTNV-1" source="WIyWlLk6GJQsqaUBKTNV-7" target="WIyWlLk6GJQsqaUBKTNV-6">
          <mxGeometry width="50" height="50" relative="1" as="geometry">
            <mxPoint x="390" y="420" as="sourcePoint" />
            <mxPoint x="440" y="370" as="targetPoint" />
          </mxGeometry>
        </mxCell>
        <object label="plcri_id" placeholders="1" plcr_id="" id="g9mh1SVgbQJ4VpyZCTlu-6">
          <mxCell style="ellipse;whiteSpace=wrap;html=1;" vertex="1" parent="WIyWlLk6GJQsqaUBKTNV-1">
            <mxGeometry x="50" y="315" width="80" height="30" as="geometry" />
          </mxCell>
        </object>
        <mxCell id="g9mh1SVgbQJ4VpyZCTlu-7" value="link" style="ellipse;whiteSpace=wrap;html=1;" vertex="1" parent="WIyWlLk6GJQsqaUBKTNV-1">
          <mxGeometry x="250" y="315" width="80" height="30" as="geometry" />
        </mxCell>
        <mxCell id="g9mh1SVgbQJ4VpyZCTlu-8" value="name" style="ellipse;whiteSpace=wrap;html=1;" vertex="1" parent="WIyWlLk6GJQsqaUBKTNV-1">
          <mxGeometry x="160" y="285" width="80" height="30" as="geometry" />
        </mxCell>
        <mxCell id="g9mh1SVgbQJ4VpyZCTlu-9" value="" style="endArrow=none;html=1;rounded=0;entryX=0.5;entryY=1;entryDx=0;entryDy=0;exitX=0.5;exitY=0;exitDx=0;exitDy=0;" edge="1" parent="WIyWlLk6GJQsqaUBKTNV-1" source="g9mh1SVgbQJ4VpyZCTlu-30" target="WIyWlLk6GJQsqaUBKTNV-6">
          <mxGeometry width="50" height="50" relative="1" as="geometry">
            <mxPoint x="170" y="550" as="sourcePoint" />
            <mxPoint x="430" y="210" as="targetPoint" />
          </mxGeometry>
        </mxCell>
        <mxCell id="g9mh1SVgbQJ4VpyZCTlu-10" value="" style="endArrow=none;html=1;rounded=0;exitX=0.5;exitY=0;exitDx=0;exitDy=0;entryX=0.5;entryY=1;entryDx=0;entryDy=0;" edge="1" parent="WIyWlLk6GJQsqaUBKTNV-1" source="WIyWlLk6GJQsqaUBKTNV-6" target="WIyWlLk6GJQsqaUBKTNV-3">
          <mxGeometry width="50" height="50" relative="1" as="geometry">
            <mxPoint x="390" y="130" as="sourcePoint" />
            <mxPoint x="440" y="80" as="targetPoint" />
          </mxGeometry>
        </mxCell>
        <mxCell id="g9mh1SVgbQJ4VpyZCTlu-12" value="" style="endArrow=none;html=1;rounded=0;exitX=1;exitY=1;exitDx=0;exitDy=0;entryX=0;entryY=0.25;entryDx=0;entryDy=0;" edge="1" parent="WIyWlLk6GJQsqaUBKTNV-1" source="g9mh1SVgbQJ4VpyZCTlu-6" target="WIyWlLk6GJQsqaUBKTNV-7">
          <mxGeometry width="50" height="50" relative="1" as="geometry">
            <mxPoint x="110" y="445" as="sourcePoint" />
            <mxPoint x="160" y="395" as="targetPoint" />
          </mxGeometry>
        </mxCell>
        <mxCell id="g9mh1SVgbQJ4VpyZCTlu-13" value="" style="endArrow=none;html=1;rounded=0;entryX=0.5;entryY=0;entryDx=0;entryDy=0;exitX=0.5;exitY=1;exitDx=0;exitDy=0;" edge="1" parent="WIyWlLk6GJQsqaUBKTNV-1" source="g9mh1SVgbQJ4VpyZCTlu-8" target="WIyWlLk6GJQsqaUBKTNV-7">
          <mxGeometry width="50" height="50" relative="1" as="geometry">
            <mxPoint x="190" y="305" as="sourcePoint" />
            <mxPoint x="180" y="395" as="targetPoint" />
          </mxGeometry>
        </mxCell>
        <mxCell id="g9mh1SVgbQJ4VpyZCTlu-15" value="" style="endArrow=none;html=1;rounded=0;entryX=0.917;entryY=0;entryDx=0;entryDy=0;entryPerimeter=0;" edge="1" parent="WIyWlLk6GJQsqaUBKTNV-1" source="g9mh1SVgbQJ4VpyZCTlu-7" target="WIyWlLk6GJQsqaUBKTNV-7">
          <mxGeometry width="50" height="50" relative="1" as="geometry">
            <mxPoint x="160" y="465" as="sourcePoint" />
            <mxPoint x="190" y="405" as="targetPoint" />
          </mxGeometry>
        </mxCell>
        <mxCell id="g9mh1SVgbQJ4VpyZCTlu-21" value="" style="endArrow=none;html=1;rounded=0;exitX=0;exitY=0.5;exitDx=0;exitDy=0;entryX=0.5;entryY=1;entryDx=0;entryDy=0;" edge="1" parent="WIyWlLk6GJQsqaUBKTNV-1" source="g9mh1SVgbQJ4VpyZCTlu-23" target="WIyWlLk6GJQsqaUBKTNV-6">
          <mxGeometry width="50" height="50" relative="1" as="geometry">
            <mxPoint x="680" y="280" as="sourcePoint" />
            <mxPoint x="440" y="370" as="targetPoint" />
          </mxGeometry>
        </mxCell>
        <mxCell id="g9mh1SVgbQJ4VpyZCTlu-22" value="" style="endArrow=none;html=1;rounded=0;entryX=0.5;entryY=1;entryDx=0;entryDy=0;exitX=0.423;exitY=0.02;exitDx=0;exitDy=0;exitPerimeter=0;" edge="1" parent="WIyWlLk6GJQsqaUBKTNV-1" source="g9mh1SVgbQJ4VpyZCTlu-40" target="WIyWlLk6GJQsqaUBKTNV-6">
          <mxGeometry width="50" height="50" relative="1" as="geometry">
            <mxPoint x="670.4000000000001" y="545.8" as="sourcePoint" />
            <mxPoint x="440" y="370" as="targetPoint" />
          </mxGeometry>
        </mxCell>
        <mxCell id="g9mh1SVgbQJ4VpyZCTlu-23" value="resi" style="rounded=1;whiteSpace=wrap;html=1;fontSize=12;glass=0;strokeWidth=1;shadow=0;" vertex="1" parent="WIyWlLk6GJQsqaUBKTNV-1">
          <mxGeometry x="610" y="355" width="120" height="40" as="geometry" />
        </mxCell>
        <mxCell id="g9mh1SVgbQJ4VpyZCTlu-24" value="link" style="ellipse;whiteSpace=wrap;html=1;" vertex="1" parent="WIyWlLk6GJQsqaUBKTNV-1">
          <mxGeometry x="740" y="310" width="80" height="30" as="geometry" />
        </mxCell>
        <mxCell id="g9mh1SVgbQJ4VpyZCTlu-25" value="name" style="ellipse;whiteSpace=wrap;html=1;" vertex="1" parent="WIyWlLk6GJQsqaUBKTNV-1">
          <mxGeometry x="650" y="280" width="80" height="30" as="geometry" />
        </mxCell>
        <mxCell id="g9mh1SVgbQJ4VpyZCTlu-26" value="" style="endArrow=none;html=1;rounded=0;exitX=1;exitY=1;exitDx=0;exitDy=0;entryX=0;entryY=0.25;entryDx=0;entryDy=0;" edge="1" target="g9mh1SVgbQJ4VpyZCTlu-23" parent="WIyWlLk6GJQsqaUBKTNV-1">
          <mxGeometry width="50" height="50" relative="1" as="geometry">
            <mxPoint x="608" y="336" as="sourcePoint" />
            <mxPoint x="650" y="390" as="targetPoint" />
          </mxGeometry>
        </mxCell>
        <mxCell id="g9mh1SVgbQJ4VpyZCTlu-27" value="" style="endArrow=none;html=1;rounded=0;entryX=0.5;entryY=0;entryDx=0;entryDy=0;exitX=0.5;exitY=1;exitDx=0;exitDy=0;" edge="1" source="g9mh1SVgbQJ4VpyZCTlu-25" target="g9mh1SVgbQJ4VpyZCTlu-23" parent="WIyWlLk6GJQsqaUBKTNV-1">
          <mxGeometry width="50" height="50" relative="1" as="geometry">
            <mxPoint x="680" y="300" as="sourcePoint" />
            <mxPoint x="670" y="390" as="targetPoint" />
          </mxGeometry>
        </mxCell>
        <mxCell id="g9mh1SVgbQJ4VpyZCTlu-28" value="" style="endArrow=none;html=1;rounded=0;entryX=0.917;entryY=0;entryDx=0;entryDy=0;entryPerimeter=0;" edge="1" source="g9mh1SVgbQJ4VpyZCTlu-24" target="g9mh1SVgbQJ4VpyZCTlu-23" parent="WIyWlLk6GJQsqaUBKTNV-1">
          <mxGeometry width="50" height="50" relative="1" as="geometry">
            <mxPoint x="650" y="460" as="sourcePoint" />
            <mxPoint x="680" y="400" as="targetPoint" />
          </mxGeometry>
        </mxCell>
        <object label="res_id" placeholders="1" plcr_id="" id="g9mh1SVgbQJ4VpyZCTlu-29">
          <mxCell style="ellipse;whiteSpace=wrap;html=1;" vertex="1" parent="WIyWlLk6GJQsqaUBKTNV-1">
            <mxGeometry x="540" y="310" width="80" height="30" as="geometry" />
          </mxCell>
        </object>
        <mxCell id="g9mh1SVgbQJ4VpyZCTlu-36" value="s_name" style="ellipse;whiteSpace=wrap;html=1;flipV=0;flipH=0;direction=east;" vertex="1" parent="WIyWlLk6GJQsqaUBKTNV-1">
          <mxGeometry x="140" y="585" width="80" height="30" as="geometry" />
        </mxCell>
        <mxCell id="g9mh1SVgbQJ4VpyZCTlu-37" value="" style="endArrow=none;html=1;rounded=0;exitX=0.375;exitY=0;exitDx=0;exitDy=0;exitPerimeter=0;entryX=0.57;entryY=0.96;entryDx=0;entryDy=0;entryPerimeter=0;" edge="1" parent="WIyWlLk6GJQsqaUBKTNV-1" source="g9mh1SVgbQJ4VpyZCTlu-36" target="g9mh1SVgbQJ4VpyZCTlu-30">
          <mxGeometry width="50" height="50" relative="1" as="geometry">
            <mxPoint x="380" y="455" as="sourcePoint" />
            <mxPoint x="160" y="525" as="targetPoint" />
          </mxGeometry>
        </mxCell>
        <mxCell id="g9mh1SVgbQJ4VpyZCTlu-38" value="no_of_s" style="ellipse;whiteSpace=wrap;html=1;flipV=0;flipH=0;direction=east;" vertex="1" parent="WIyWlLk6GJQsqaUBKTNV-1">
          <mxGeometry x="190" y="545" width="80" height="30" as="geometry" />
        </mxCell>
        <mxCell id="g9mh1SVgbQJ4VpyZCTlu-39" value="" style="endArrow=none;html=1;rounded=0;exitX=0;exitY=0;exitDx=0;exitDy=0;entryX=0.75;entryY=1;entryDx=0;entryDy=0;" edge="1" parent="WIyWlLk6GJQsqaUBKTNV-1" source="g9mh1SVgbQJ4VpyZCTlu-38" target="g9mh1SVgbQJ4VpyZCTlu-30">
          <mxGeometry width="50" height="50" relative="1" as="geometry">
            <mxPoint x="98" y="559" as="sourcePoint" />
            <mxPoint x="130" y="530" as="targetPoint" />
          </mxGeometry>
        </mxCell>
        <mxCell id="g9mh1SVgbQJ4VpyZCTlu-40" value="student_admitted" style="rounded=1;whiteSpace=wrap;html=1;fontSize=12;glass=0;strokeWidth=1;shadow=0;flipV=0;flipH=0;direction=east;" vertex="1" parent="WIyWlLk6GJQsqaUBKTNV-1">
          <mxGeometry x="650" y="480" width="120" height="40" as="geometry" />
        </mxCell>
        <mxCell id="g9mh1SVgbQJ4VpyZCTlu-41" value="sr" style="ellipse;whiteSpace=wrap;html=1;flipV=0;flipH=0;direction=east;" vertex="1" parent="WIyWlLk6GJQsqaUBKTNV-1">
          <mxGeometry x="600" y="585" width="80" height="30" as="geometry" />
        </mxCell>
        <mxCell id="g9mh1SVgbQJ4VpyZCTlu-42" value="i_c" style="ellipse;whiteSpace=wrap;html=1;flipV=0;flipH=0;direction=east;" vertex="1" parent="WIyWlLk6GJQsqaUBKTNV-1">
          <mxGeometry x="570" y="545" width="80" height="30" as="geometry" />
        </mxCell>
        <mxCell id="g9mh1SVgbQJ4VpyZCTlu-43" value="" style="endArrow=none;html=1;rounded=0;exitX=1;exitY=0;exitDx=0;exitDy=0;entryX=0.25;entryY=1;entryDx=0;entryDy=0;" edge="1" source="g9mh1SVgbQJ4VpyZCTlu-42" target="g9mh1SVgbQJ4VpyZCTlu-40" parent="WIyWlLk6GJQsqaUBKTNV-1">
          <mxGeometry width="50" height="50" relative="1" as="geometry">
            <mxPoint x="710" y="405" as="sourcePoint" />
            <mxPoint x="660" y="515" as="targetPoint" />
          </mxGeometry>
        </mxCell>
        <mxCell id="g9mh1SVgbQJ4VpyZCTlu-44" value="" style="endArrow=none;html=1;rounded=0;entryX=0.417;entryY=1.02;entryDx=0;entryDy=0;entryPerimeter=0;" edge="1" source="g9mh1SVgbQJ4VpyZCTlu-41" target="g9mh1SVgbQJ4VpyZCTlu-40" parent="WIyWlLk6GJQsqaUBKTNV-1">
          <mxGeometry width="50" height="50" relative="1" as="geometry">
            <mxPoint x="567.0570026991991" y="607.3478636006969" as="sourcePoint" />
            <mxPoint x="597.0570026991991" y="547.3478636006969" as="targetPoint" />
          </mxGeometry>
        </mxCell>
        <mxCell id="g9mh1SVgbQJ4VpyZCTlu-45" value="a_s" style="ellipse;whiteSpace=wrap;html=1;flipV=0;flipH=0;direction=east;" vertex="1" parent="WIyWlLk6GJQsqaUBKTNV-1">
          <mxGeometry x="690" y="585" width="80" height="30" as="geometry" />
        </mxCell>
        <mxCell id="g9mh1SVgbQJ4VpyZCTlu-46" value="" style="endArrow=none;html=1;rounded=0;exitX=0.375;exitY=0;exitDx=0;exitDy=0;exitPerimeter=0;entryX=0.57;entryY=0.96;entryDx=0;entryDy=0;entryPerimeter=0;" edge="1" source="g9mh1SVgbQJ4VpyZCTlu-45" target="g9mh1SVgbQJ4VpyZCTlu-40" parent="WIyWlLk6GJQsqaUBKTNV-1">
          <mxGeometry width="50" height="50" relative="1" as="geometry">
            <mxPoint x="930" y="455" as="sourcePoint" />
            <mxPoint x="710" y="525" as="targetPoint" />
          </mxGeometry>
        </mxCell>
        <mxCell id="g9mh1SVgbQJ4VpyZCTlu-47" value="year" style="ellipse;whiteSpace=wrap;html=1;flipV=0;flipH=0;direction=east;" vertex="1" parent="WIyWlLk6GJQsqaUBKTNV-1">
          <mxGeometry x="740" y="545" width="80" height="30" as="geometry" />
        </mxCell>
        <mxCell id="g9mh1SVgbQJ4VpyZCTlu-48" value="" style="endArrow=none;html=1;rounded=0;exitX=0;exitY=0;exitDx=0;exitDy=0;entryX=0.75;entryY=1;entryDx=0;entryDy=0;" edge="1" source="g9mh1SVgbQJ4VpyZCTlu-47" target="g9mh1SVgbQJ4VpyZCTlu-40" parent="WIyWlLk6GJQsqaUBKTNV-1">
          <mxGeometry width="50" height="50" relative="1" as="geometry">
            <mxPoint x="648" y="559" as="sourcePoint" />
            <mxPoint x="680" y="530" as="targetPoint" />
          </mxGeometry>
        </mxCell>
        <mxCell id="g9mh1SVgbQJ4VpyZCTlu-49" value="" style="endArrow=none;html=1;rounded=0;exitX=0.5;exitY=0;exitDx=0;exitDy=0;entryX=0.5;entryY=1;entryDx=0;entryDy=0;" edge="1" parent="WIyWlLk6GJQsqaUBKTNV-1" source="g9mh1SVgbQJ4VpyZCTlu-63" target="WIyWlLk6GJQsqaUBKTNV-6">
          <mxGeometry width="50" height="50" relative="1" as="geometry">
            <mxPoint x="220" y="840" as="sourcePoint" />
            <mxPoint x="440" y="670" as="targetPoint" />
          </mxGeometry>
        </mxCell>
        <mxCell id="g9mh1SVgbQJ4VpyZCTlu-50" value="" style="endArrow=none;html=1;rounded=0;entryX=0.5;entryY=1;entryDx=0;entryDy=0;exitX=0.5;exitY=0;exitDx=0;exitDy=0;" edge="1" parent="WIyWlLk6GJQsqaUBKTNV-1" source="g9mh1SVgbQJ4VpyZCTlu-72" target="WIyWlLk6GJQsqaUBKTNV-6">
          <mxGeometry width="50" height="50" relative="1" as="geometry">
            <mxPoint x="660" y="840" as="sourcePoint" />
            <mxPoint x="440" y="670" as="targetPoint" />
          </mxGeometry>
        </mxCell>
        <mxCell id="g9mh1SVgbQJ4VpyZCTlu-63" value="ara_2021_2022" style="rounded=1;whiteSpace=wrap;html=1;fontSize=12;glass=0;strokeWidth=1;shadow=0;flipV=0;flipH=0;direction=east;" vertex="1" parent="WIyWlLk6GJQsqaUBKTNV-1">
          <mxGeometry x="230" y="640" width="120" height="40" as="geometry" />
        </mxCell>
        <mxCell id="g9mh1SVgbQJ4VpyZCTlu-64" value="grade" style="ellipse;whiteSpace=wrap;html=1;flipV=0;flipH=0;direction=east;" vertex="1" parent="WIyWlLk6GJQsqaUBKTNV-1">
          <mxGeometry x="200" y="760" width="80" height="30" as="geometry" />
        </mxCell>
        <mxCell id="g9mh1SVgbQJ4VpyZCTlu-65" value="arid" style="ellipse;whiteSpace=wrap;html=1;flipV=0;flipH=0;direction=east;" vertex="1" parent="WIyWlLk6GJQsqaUBKTNV-1">
          <mxGeometry x="160" y="705" width="80" height="30" as="geometry" />
        </mxCell>
        <mxCell id="g9mh1SVgbQJ4VpyZCTlu-66" value="" style="endArrow=none;html=1;rounded=0;exitX=1;exitY=0;exitDx=0;exitDy=0;entryX=0.25;entryY=1;entryDx=0;entryDy=0;" edge="1" source="g9mh1SVgbQJ4VpyZCTlu-65" target="g9mh1SVgbQJ4VpyZCTlu-63" parent="WIyWlLk6GJQsqaUBKTNV-1">
          <mxGeometry width="50" height="50" relative="1" as="geometry">
            <mxPoint x="300" y="565" as="sourcePoint" />
            <mxPoint x="250" y="675" as="targetPoint" />
          </mxGeometry>
        </mxCell>
        <mxCell id="g9mh1SVgbQJ4VpyZCTlu-67" value="" style="endArrow=none;html=1;rounded=0;entryX=0.417;entryY=1.02;entryDx=0;entryDy=0;entryPerimeter=0;" edge="1" source="g9mh1SVgbQJ4VpyZCTlu-64" target="g9mh1SVgbQJ4VpyZCTlu-63" parent="WIyWlLk6GJQsqaUBKTNV-1">
          <mxGeometry width="50" height="50" relative="1" as="geometry">
            <mxPoint x="157.05700269919907" y="767.3478636006969" as="sourcePoint" />
            <mxPoint x="187.05700269919907" y="707.3478636006969" as="targetPoint" />
          </mxGeometry>
        </mxCell>
        <mxCell id="g9mh1SVgbQJ4VpyZCTlu-68" value="no_of_stud" style="ellipse;whiteSpace=wrap;html=1;flipV=0;flipH=0;direction=east;" vertex="1" parent="WIyWlLk6GJQsqaUBKTNV-1">
          <mxGeometry x="290" y="730" width="80" height="30" as="geometry" />
        </mxCell>
        <mxCell id="g9mh1SVgbQJ4VpyZCTlu-69" value="" style="endArrow=none;html=1;rounded=0;exitX=0.375;exitY=0;exitDx=0;exitDy=0;exitPerimeter=0;entryX=0.57;entryY=0.96;entryDx=0;entryDy=0;entryPerimeter=0;" edge="1" source="g9mh1SVgbQJ4VpyZCTlu-68" target="g9mh1SVgbQJ4VpyZCTlu-63" parent="WIyWlLk6GJQsqaUBKTNV-1">
          <mxGeometry width="50" height="50" relative="1" as="geometry">
            <mxPoint x="520" y="615" as="sourcePoint" />
            <mxPoint x="300" y="685" as="targetPoint" />
          </mxGeometry>
        </mxCell>
        <mxCell id="g9mh1SVgbQJ4VpyZCTlu-72" value="arrh_2021_2022" style="rounded=1;whiteSpace=wrap;html=1;fontSize=12;glass=0;strokeWidth=1;shadow=0;flipV=0;flipH=0;direction=east;" vertex="1" parent="WIyWlLk6GJQsqaUBKTNV-1">
          <mxGeometry x="500" y="640" width="120" height="40" as="geometry" />
        </mxCell>
        <mxCell id="g9mh1SVgbQJ4VpyZCTlu-73" value="arid" style="ellipse;whiteSpace=wrap;html=1;flipV=0;flipH=0;direction=east;" vertex="1" parent="WIyWlLk6GJQsqaUBKTNV-1">
          <mxGeometry x="480" y="730" width="80" height="30" as="geometry" />
        </mxCell>
        <mxCell id="g9mh1SVgbQJ4VpyZCTlu-76" value="" style="endArrow=none;html=1;rounded=0;entryX=0.417;entryY=1.02;entryDx=0;entryDy=0;entryPerimeter=0;" edge="1" target="g9mh1SVgbQJ4VpyZCTlu-72" parent="WIyWlLk6GJQsqaUBKTNV-1">
          <mxGeometry width="50" height="50" relative="1" as="geometry">
            <mxPoint x="511.24605578612886" y="730.6050485937553" as="sourcePoint" />
            <mxPoint x="457.0570026991991" y="707.3478636006969" as="targetPoint" />
          </mxGeometry>
        </mxCell>
        <mxCell id="g9mh1SVgbQJ4VpyZCTlu-77" value="name" style="ellipse;whiteSpace=wrap;html=1;flipV=0;flipH=0;direction=east;" vertex="1" parent="WIyWlLk6GJQsqaUBKTNV-1">
          <mxGeometry x="560" y="760" width="80" height="30" as="geometry" />
        </mxCell>
        <mxCell id="g9mh1SVgbQJ4VpyZCTlu-78" value="" style="endArrow=none;html=1;rounded=0;exitX=0.375;exitY=0;exitDx=0;exitDy=0;exitPerimeter=0;entryX=0.57;entryY=0.96;entryDx=0;entryDy=0;entryPerimeter=0;" edge="1" source="g9mh1SVgbQJ4VpyZCTlu-77" target="g9mh1SVgbQJ4VpyZCTlu-72" parent="WIyWlLk6GJQsqaUBKTNV-1">
          <mxGeometry width="50" height="50" relative="1" as="geometry">
            <mxPoint x="790" y="615" as="sourcePoint" />
            <mxPoint x="570" y="685" as="targetPoint" />
          </mxGeometry>
        </mxCell>
        <mxCell id="g9mh1SVgbQJ4VpyZCTlu-79" value="per" style="ellipse;whiteSpace=wrap;html=1;flipV=0;flipH=0;direction=east;" vertex="1" parent="WIyWlLk6GJQsqaUBKTNV-1">
          <mxGeometry x="600" y="705" width="80" height="30" as="geometry" />
        </mxCell>
        <mxCell id="g9mh1SVgbQJ4VpyZCTlu-80" value="" style="endArrow=none;html=1;rounded=0;exitX=0;exitY=0;exitDx=0;exitDy=0;entryX=0.75;entryY=1;entryDx=0;entryDy=0;" edge="1" source="g9mh1SVgbQJ4VpyZCTlu-79" target="g9mh1SVgbQJ4VpyZCTlu-72" parent="WIyWlLk6GJQsqaUBKTNV-1">
          <mxGeometry width="50" height="50" relative="1" as="geometry">
            <mxPoint x="508" y="719" as="sourcePoint" />
            <mxPoint x="540" y="690" as="targetPoint" />
          </mxGeometry>
        </mxCell>
        <mxCell id="g9mh1SVgbQJ4VpyZCTlu-82" value="visitors_count" style="rounded=1;whiteSpace=wrap;html=1;fontSize=12;glass=0;strokeWidth=1;shadow=0;flipV=0;flipH=0;direction=east;" vertex="1" parent="WIyWlLk6GJQsqaUBKTNV-1">
          <mxGeometry x="375" y="890" width="120" height="40" as="geometry" />
        </mxCell>
        <mxCell id="g9mh1SVgbQJ4VpyZCTlu-83" value="count" style="ellipse;whiteSpace=wrap;html=1;flipV=0;flipH=0;direction=east;" vertex="1" parent="WIyWlLk6GJQsqaUBKTNV-1">
          <mxGeometry x="385" y="990" width="100" height="40" as="geometry" />
        </mxCell>
        <mxCell id="g9mh1SVgbQJ4VpyZCTlu-86" value="" style="endArrow=none;html=1;rounded=0;entryX=0.5;entryY=1;entryDx=0;entryDy=0;" edge="1" source="g9mh1SVgbQJ4VpyZCTlu-83" target="g9mh1SVgbQJ4VpyZCTlu-82" parent="WIyWlLk6GJQsqaUBKTNV-1">
          <mxGeometry width="50" height="50" relative="1" as="geometry">
            <mxPoint x="306.0570026991991" y="1017.3478636006969" as="sourcePoint" />
            <mxPoint x="336.0570026991991" y="957.3478636006969" as="targetPoint" />
          </mxGeometry>
        </mxCell>
        <object label="end_year" placeholders="1" plcr_id="" id="g9mh1SVgbQJ4VpyZCTlu-89">
          <mxCell style="ellipse;whiteSpace=wrap;html=1;" vertex="1" parent="WIyWlLk6GJQsqaUBKTNV-1">
            <mxGeometry x="720" y="410" width="80" height="30" as="geometry" />
          </mxCell>
        </object>
        <mxCell id="g9mh1SVgbQJ4VpyZCTlu-91" value="" style="endArrow=none;html=1;rounded=0;exitX=0;exitY=0;exitDx=0;exitDy=0;" edge="1" parent="WIyWlLk6GJQsqaUBKTNV-1" source="g9mh1SVgbQJ4VpyZCTlu-89">
          <mxGeometry width="50" height="50" relative="1" as="geometry">
            <mxPoint x="670" y="445" as="sourcePoint" />
            <mxPoint x="720" y="395" as="targetPoint" />
          </mxGeometry>
        </mxCell>
      </root>
    </mxGraphModel>
  </diagram>
</mxfile>
